<?xml version='1.0' encoding='utf-8'?>
<!DOCTYPE svg PUBLIC '-//W3C//DTD SVG 1.1//EN' 'http://www.w3.org/Graphics/SVG/1.1/DTD/svg11.dtd'>
<svg style="fill:#4D9BF7;" version="1.1" xmlns="http://www.w3.org/2000/svg" viewBox="0 0 512 512" xmlns:xlink="http://www.w3.org/1999/xlink" enable-background="new 0 0 512 512">
  <g>
    <path d="m256,11c-135.1,0-245,109.9-245,245 0,60.2 21.8,115.4 58,158.1l-52,52c-8,8-8,20.9 0,28.9 8,8 20.9,8 28.9,0l52-52c42.7,36.2 97.9,58 158.1,58 135.1,0 245-109.9 245-245s-109.9-245-245-245zm0,449.2c-49,0-93.9-17.3-129.1-46.2l112-112c5.3,2 11.1,3.1 17.2,3.1 27.1,0 49.1-22 49.1-49.1s-22-49.1-49.1-49.1-49.1,22-49.1,49.1c0,6 1.1,11.8 3.1,17.2l-112,112c-28.9-35.3-46.3-80.2-46.3-129.2 0-112.6 91.6-204.2 204.2-204.2 112.6,0 204.2,91.6 204.2,204.2 0,112.6-91.6,204.2-204.2,204.2z"/>
  </g>
</svg>
